<?xml version="1.0" encoding="iso-8859-1"?>
<!-- Generator: Adobe Illustrator 18.0.0, SVG Export Plug-In . SVG Version: 6.00 Build 0)  -->
<!DOCTYPE svg PUBLIC "-//W3C//DTD SVG 1.1//EN" "http://www.w3.org/Graphics/SVG/1.1/DTD/svg11.dtd">
<svg version="1.1" id="Capa_1" xmlns="http://www.w3.org/2000/svg" xmlns:xlink="http://www.w3.org/1999/xlink" x="0px" y="0px"
	 viewBox="0 0 325 325" style="enable-background:new 0 0 325 325;" xml:space="preserve">
<path d="M323.242,106.696l-25.265-25.265c-1.125-1.126-2.651-1.758-4.242-1.758c-1.592,0-3.117,0.632-4.243,1.758l-9.879,9.879
	c-36.936-25.753-84.025-30.93-125.039-15.521l38.858-38.858c2.724,1.397,5.754,2.15,8.903,2.15c5.22,0,10.128-2.033,13.819-5.725
	c7.617-7.618,7.617-20.015-0.001-27.633C212.464,2.032,207.557,0,202.338,0c-5.22,0-10.127,2.032-13.817,5.724
	c-6.139,6.138-7.323,15.375-3.57,22.719l-61.38,61.379l-8.39-8.39c-2.342-2.344-6.143-2.344-8.484,0l-25.265,25.265
	c-1.126,1.125-1.758,2.651-1.758,4.242c0,1.592,0.632,3.117,1.758,4.243l8.39,8.389l-61.378,61.377
	c-2.724-1.398-5.754-2.15-8.903-2.15c-5.219,0-10.126,2.032-13.817,5.723C2.032,192.211,0,197.118,0,202.338
	c0,5.22,2.032,10.127,5.724,13.816c3.69,3.691,8.597,5.724,13.815,5.724c5.22,0,10.126-2.032,13.817-5.724
	c6.14-6.139,7.323-15.375,3.57-22.72l38.861-38.86c-15.408,41.016-10.23,88.104,15.525,125.038l-9.881,9.881
	c-2.344,2.343-2.344,6.142,0,8.484l25.265,25.265c1.171,1.172,2.707,1.758,4.242,1.758c1.535,0,3.071-0.586,4.242-1.758
	l25.265-25.265c2.344-2.343,2.344-6.142,0-8.484l-25.265-25.265c-2.342-2.344-6.143-2.344-8.484,0l-6.739,6.739
	c-27.75-41.321-27.75-95.939-0.001-137.261l6.74,6.739c1.171,1.171,2.707,1.757,4.242,1.757c1.535,0,3.071-0.586,4.242-1.757
	l25.265-25.264c1.126-1.126,1.758-2.651,1.758-4.243c0-1.591-0.632-3.117-1.758-4.242l-6.74-6.74
	c41.32-27.747,95.936-27.748,137.262,0l-6.739,6.739c-2.343,2.343-2.343,6.142,0,8.484l25.264,25.265
	c1.126,1.126,2.651,1.758,4.243,1.758c1.591,0,3.117-0.632,4.242-1.758l25.265-25.265
	C325.586,112.838,325.586,109.039,323.242,106.696z M110.94,276.956l16.779,16.779l-16.779,16.779L94.16,293.735L110.94,276.956z
	 M197.005,14.208c1.425-1.424,3.318-2.208,5.333-2.208c2.014,0,3.907,0.784,5.331,2.208c2.94,2.94,2.94,7.724,0.001,10.664
	c-1.425,1.424-3.319,2.209-5.334,2.209c-2.012,0-3.903-0.783-5.327-2.204l-0.003-0.004c-0.001-0.001-0.003-0.002-0.003-0.002
	C194.065,21.93,194.066,17.147,197.005,14.208z M24.872,207.669c-1.425,1.425-3.318,2.209-5.333,2.209
	c-2.014,0-3.906-0.784-5.331-2.209c-1.424-1.424-2.208-3.317-2.208-5.331c0-2.015,0.784-3.909,2.208-5.333
	c1.425-1.424,3.318-2.208,5.332-2.208c2.012,0,3.904,0.783,5.328,2.203l0.003,0.004c0.001,0.001,0.003,0.002,0.003,0.002
	C27.812,199.947,27.811,204.73,24.872,207.669z M110.94,127.718l-8.388-8.387c-0.001-0.001-0.001-0.002-0.001-0.002
	c-0.002-0.002-0.003-0.003-0.004-0.003l-8.388-8.388l16.779-16.779l8.375,8.374c0.005,0.006,0.008,0.012,0.013,0.017
	c0.005,0.005,0.011,0.008,0.016,0.013l0.766,0.766c0.016,0.016,0.031,0.031,0.047,0.047l7.564,7.564L110.94,127.718z
	 M293.735,127.718l-16.778-16.779l16.778-16.779l16.779,16.779L293.735,127.718z"/>
<g>
</g>
<g>
</g>
<g>
</g>
<g>
</g>
<g>
</g>
<g>
</g>
<g>
</g>
<g>
</g>
<g>
</g>
<g>
</g>
<g>
</g>
<g>
</g>
<g>
</g>
<g>
</g>
<g>
</g>
</svg>
