<?xml version="1.0" encoding="iso-8859-1"?>
<!-- Generator: Adobe Illustrator 16.0.0, SVG Export Plug-In . SVG Version: 6.00 Build 0)  -->
<!DOCTYPE svg PUBLIC "-//W3C//DTD SVG 1.1//EN" "http://www.w3.org/Graphics/SVG/1.1/DTD/svg11.dtd">
<svg version="1.1" id="Capa_1" xmlns="http://www.w3.org/2000/svg" xmlns:xlink="http://www.w3.org/1999/xlink" x="0px" y="0px"
	 width="106px" height="106px" viewBox="0 0 106 106" style="enable-background:new 0 0 106 106;" xml:space="preserve">
<g>
	<path d="M71.5,106h-37c-5.79,0-10.5-4.71-10.5-10.5v-85C24,4.71,28.71,0,34.5,0h37C77.29,0,82,4.71,82,10.5v85
		C82,101.29,77.29,106,71.5,106z M34.5,1C29.262,1,25,5.262,25,10.5v85c0,5.238,4.262,9.5,9.5,9.5h37c5.238,0,9.5-4.262,9.5-9.5v-85
		C81,5.262,76.738,1,71.5,1H34.5z M53,103.167c-2.79,0-5.068-2.19-5.187-4.987c0.026-2.861,2.353-5.169,5.187-5.169
		s5.161,2.308,5.188,5.144C58.068,100.977,55.79,103.167,53,103.167z M53,94.011c-2.288,0-4.166,1.862-4.187,4.152
		c0.096,2.233,1.935,4.004,4.187,4.004s4.091-1.771,4.188-4.03C57.166,95.873,55.288,94.011,53,94.011z M69.988,98.66H58.197
		l-0.018-0.48c-0.131-3.552-2.762-4.815-5.181-4.815s-5.049,1.265-5.18,4.815l-0.018,0.48H36.012c-5.339,0-9.683-4.984-9.683-11.11
		v-7.356l0.982,3.594c1.016,3.718,3.945,6.216,7.288,6.216H71.4c3.344,0,6.272-2.498,7.289-6.216l0.981-3.594v7.356
		C79.671,93.676,75.328,98.66,69.988,98.66z M59.146,97.66h10.842c4.787,0,8.683-4.535,8.683-10.11v-1.086
		c-1.562,2.789-4.265,4.538-7.271,4.538H34.599c-3.006,0-5.709-1.749-7.271-4.538v1.086c0,5.575,3.895,10.11,8.683,10.11h10.842
		c0.324-3.234,2.69-5.297,6.146-5.297S58.822,94.426,59.146,97.66z M71.85,90.832H34.151c-4.313,0-7.822-3.477-7.822-7.748V17.168
		h53.343v65.916C79.671,87.355,76.162,90.832,71.85,90.832z M27.329,18.168v64.916c0,3.721,3.061,6.748,6.822,6.748H71.85
		c3.762,0,6.821-3.027,6.821-6.748V18.168H27.329z M79.671,18.168H26.329v-0.945c0-5.339,4.344-9.683,9.683-9.683h33.976
		c5.34,0,9.684,4.344,9.684,9.683L79.671,18.168L79.671,18.168z M27.329,17.168h51.343c-0.029-4.763-3.914-8.628-8.684-8.628H36.012
		C31.242,8.54,27.358,12.405,27.329,17.168z M48.917,12.334c-1.103,0-2-0.897-2-2s0.897-2,2-2s2,0.897,2,2
		S50.02,12.334,48.917,12.334z M48.917,9.334c-0.551,0-1,0.448-1,1s0.449,1,1,1s1-0.448,1-1S49.468,9.334,48.917,9.334z
		 M53.083,12.334c-1.103,0-2-0.897-2-2s0.897-2,2-2c1.103,0,2,0.897,2,2S54.188,12.334,53.083,12.334z M53.083,9.334
		c-0.551,0-1,0.448-1,1s0.449,1,1,1s1-0.448,1-1S53.635,9.334,53.083,9.334z M57.083,12.334c-1.103,0-2-0.897-2-2s0.897-2,2-2
		s2,0.897,2,2S58.188,12.334,57.083,12.334z M57.083,9.334c-0.551,0-1,0.448-1,1s0.449,1,1,1s1-0.448,1-1S57.635,9.334,57.083,9.334
		z"/>
</g>
<g>
</g>
<g>
</g>
<g>
</g>
<g>
</g>
<g>
</g>
<g>
</g>
<g>
</g>
<g>
</g>
<g>
</g>
<g>
</g>
<g>
</g>
<g>
</g>
<g>
</g>
<g>
</g>
<g>
</g>
</svg>
