<?xml version="1.0" encoding="iso-8859-1"?>
<!-- Generator: Adobe Illustrator 16.0.0, SVG Export Plug-In . SVG Version: 6.00 Build 0)  -->
<!DOCTYPE svg PUBLIC "-//W3C//DTD SVG 1.1//EN" "http://www.w3.org/Graphics/SVG/1.1/DTD/svg11.dtd">
<svg version="1.1" id="Capa_1" xmlns="http://www.w3.org/2000/svg" xmlns:xlink="http://www.w3.org/1999/xlink" x="0px" y="0px"
	 width="114.527px" height="114.527px" viewBox="0 0 114.527 114.527" style="enable-background:new 0 0 114.527 114.527;"
	 xml:space="preserve">
<g>
	<path d="M82.981,0H31.546c-3.025,0-5.484,2.461-5.484,5.484v103.559c0,3.023,2.459,5.484,5.484,5.484h51.436
		c3.023,0,5.484-2.461,5.484-5.484V5.484C88.466,2.461,86.005,0,82.981,0z M86.642,109.043c0,2.018-1.643,3.66-3.66,3.66H31.546
		c-2.02,0-3.662-1.643-3.662-3.66v-9.107h58.758V109.043z M27.974,90.561V14.207h58.514v76.354H27.974z M86.642,12.383H27.884V5.485
		c0-2.02,1.643-3.66,3.662-3.66h51.436c2.018,0,3.66,1.641,3.66,3.66V12.383z M35.558,7.093c0,0.691-0.561,1.25-1.25,1.25
		c-0.691,0-1.25-0.559-1.25-1.25c0-0.689,0.559-1.25,1.25-1.25C34.997,5.843,35.558,6.403,35.558,7.093z M39.247,7.093
		c0,0.691-0.561,1.25-1.25,1.25c-0.691,0-1.25-0.559-1.25-1.25c0-0.689,0.559-1.25,1.25-1.25
		C38.687,5.843,39.247,6.403,39.247,7.093z M40.558,6.306h35.25v1.25h-35.25V6.306z M75.808,107.014h-35.25v-1.25h35.25V107.014z
		 M81.47,6.931c0,1.09-0.885,1.975-1.975,1.975c-1.092,0-1.978-0.885-1.978-1.975c0-1.09,0.886-1.975,1.978-1.975
		C80.585,4.956,81.47,5.841,81.47,6.931z"/>
</g>
<g>
</g>
<g>
</g>
<g>
</g>
<g>
</g>
<g>
</g>
<g>
</g>
<g>
</g>
<g>
</g>
<g>
</g>
<g>
</g>
<g>
</g>
<g>
</g>
<g>
</g>
<g>
</g>
<g>
</g>
</svg>
